# This file uses centimeters as units for non-parametric coordinates.

mtllib UvTestCube.mtl
g default
v -0.500000 -0.500000 0.500000
v 0.500000 -0.500000 0.500000
v -0.500000 0.500000 0.500000
v 0.500000 0.500000 0.500000
v -0.500000 0.500000 -0.500000
v 0.500000 0.500000 -0.500000
v -0.500000 -0.500000 -0.500000
v 0.500000 -0.500000 -0.500000
vt 0.377167 0.500225
vt 0.502167 0.500225
vt 0.377167 0.625225
vt 0.502167 0.625225
vt 0.123026 0.501472
vt 0.248025 0.501472
vt 0.123026 0.626471
vt 0.248025 0.626471
vt 0.248947 0.624124
vt 0.373946 0.624124
vt 0.248947 0.749124
vt 0.373946 0.749124
vt 0.249948 0.376410
vt 0.374948 0.376410
vt 0.249948 0.501410
vt 0.374948 0.501410
vt 0.249999 0.501943
vt 0.374999 0.501943
vt 0.249999 0.626943
vt 0.374999 0.626943
vt 0.376123 0.877926
vt 0.251123 0.877926
vt 0.376123 0.752926
vt 0.251123 0.752926
vn 0.000000 0.000000 1.000000
vn 0.000000 0.000000 1.000000
vn 0.000000 0.000000 1.000000
vn 0.000000 0.000000 1.000000
vn 0.000000 1.000000 0.000000
vn 0.000000 1.000000 0.000000
vn 0.000000 1.000000 0.000000
vn 0.000000 1.000000 0.000000
vn 0.000000 0.000000 -1.000000
vn 0.000000 0.000000 -1.000000
vn 0.000000 0.000000 -1.000000
vn 0.000000 0.000000 -1.000000
vn 0.000000 -1.000000 0.000000
vn 0.000000 -1.000000 0.000000
vn 0.000000 -1.000000 0.000000
vn 0.000000 -1.000000 0.000000
vn 1.000000 0.000000 0.000000
vn 1.000000 0.000000 0.000000
vn 1.000000 0.000000 0.000000
vn 1.000000 0.000000 0.000000
vn -1.000000 0.000000 0.000000
vn -1.000000 0.000000 0.000000
vn -1.000000 0.000000 0.000000
vn -1.000000 0.000000 0.000000
s 1
g TestCube
usemtl phong1SG
f 1/17/1 2/18/2 3/19/3
f 3/19/3 2/18/2 4/20/4
s 2
f 3/9/5 4/10/6 5/11/7
f 5/11/7 4/10/6 6/12/8
s 3
f 5/21/9 6/22/10 7/23/11
f 7/23/11 6/22/10 8/24/12
s 4
f 7/13/13 8/14/14 1/15/15
f 1/15/15 8/14/14 2/16/16
s 5
f 2/1/17 8/2/18 4/3/19
f 4/3/19 8/2/18 6/4/20
s 6
f 7/5/21 1/6/22 5/7/23
f 5/7/23 1/6/22 3/8/24
